<?xml version="1.0" encoding="UTF-8" standalone="no"?>
<!DOCTYPE svg PUBLIC "-//W3C//DTD SVG 1.1//EN" "http://www.w3.org/Graphics/SVG/1.1/DTD/svg11.dtd">
<svg width="100%" height="100%" viewBox="0 0 481 456" version="1.1" xmlns="http://www.w3.org/2000/svg" xmlns:xlink="http://www.w3.org/1999/xlink" xml:space="preserve" xmlns:serif="http://www.serif.com/" style="fill-rule:evenodd;clip-rule:evenodd;stroke-linecap:round;stroke-linejoin:round;stroke-miterlimit:1.5;">
    <g transform="matrix(1,0,0,1,-444.524,-794.874)">
        <g transform="matrix(1,0,0,1,202.969,643.555)">
            <path d="M564.562,358.019C601.162,417.833 640.014,568.194 588.034,592.193C504.878,630.586 387.243,402.329 367.292,328.416C323.125,164.787 398.237,151.256 449.264,200.926" style="fill:none;stroke:rgb(103,89,93);stroke-width:20.12px;"/>
        </g>
        <g transform="matrix(-0.586977,0.809604,-0.809604,-0.586977,1283.15,871.194)">
            <path d="M621.92,513.601C628.58,549.467 620.821,576.624 603.577,585.405C520.39,627.765 373.326,406.059 350.725,322.493C312.233,180.163 369.041,174.135 424.189,210.221" style="fill:none;stroke:rgb(103,89,93);stroke-width:20.12px;"/>
        </g>
        <g transform="matrix(0.45172,0.89216,-0.89216,0.45172,811.122,424.038)">
            <path d="M616.389,505.839C623.049,541.705 620.819,576.618 603.577,585.405C514.255,630.925 379.156,403.468 356.207,319.997C317.044,177.551 386.899,151.102 443.445,209.448" style="fill:none;stroke:rgb(103,89,93);stroke-width:20.12px;"/>
        </g>
        <g transform="matrix(0.35319,-3.20723e-17,3.20723e-17,0.35319,-645.289,889.96)">
            <g transform="matrix(2,0,0,2,889.946,-1458.63)">
                <path d="M1645.18,955.729L1459.37,1224.95L1459.37,1073.47L1645.18,955.729Z" style="fill:rgb(102,123,190);"/>
            </g>
            <g transform="matrix(-2,0,0,2,6727.43,-1458.63)">
                <path d="M1645.18,955.729L1459.37,1224.95L1459.37,1073.47L1645.18,955.729Z" style="fill:rgb(16,174,211);"/>
            </g>
            <g transform="matrix(2,0,0,2,889.946,-1458.63)">
                <path d="M1459.37,809.824C1459.37,809.824 1273.42,915.683 1273.56,915.482C1273.7,915.281 1459.37,1034.59 1459.37,1034.59L1459.37,809.824Z" style="fill:rgb(81,187,121);"/>
            </g>
            <g transform="matrix(-2,0,0,2,6727.43,-1458.63)">
                <path d="M1459.37,809.824C1459.37,809.824 1273.42,915.683 1273.56,915.482C1273.7,915.281 1459.37,1034.59 1459.37,1034.59L1459.37,809.824Z" style="fill:rgb(156,103,171);"/>
            </g>
            <g transform="matrix(2,0,0,2,1471.22,-1097.55)">
                <path d="M982.923,734.945L1168.73,414.167L1168.73,629.469L982.923,734.945Z" style="fill:rgb(249,237,103);"/>
            </g>
            <g transform="matrix(-2,0,0,2,6146.15,-1097.55)">
                <path d="M982.923,734.945L1168.73,414.167L1168.73,629.469L982.923,734.945Z" style="fill:rgb(245,138,118);"/>
            </g>
            <g transform="matrix(2.83134,2.57107e-16,-2.57107e-16,2.83134,2401.71,-697.656)">
                <clipPath id="_clip1">
                    <rect x="353.918" y="303.275" width="174.126" height="293.236"/>
                </clipPath>
                <g clip-path="url(#_clip1)">
                    <path d="M564.562,358.019C601.162,417.833 640.014,568.194 588.034,592.193C504.878,630.586 387.243,402.329 367.292,328.416C323.125,164.787 398.237,151.256 449.264,200.926" style="fill:none;stroke:rgb(103,89,93);stroke-width:20.12px;"/>
                </g>
            </g>
        </g>
    </g>
</svg>